<?xml version="1.0" standalone="no"?>
<!DOCTYPE svg PUBLIC "-//W3C//DTD SVG 20010904//EN"
 "http://www.w3.org/TR/2001/REC-SVG-20010904/DTD/svg10.dtd">
<svg version="1.0" xmlns="http://www.w3.org/2000/svg"
 width="512.000000pt" height="512.000000pt" viewBox="0 0 512.000000 512.000000"
 preserveAspectRatio="xMidYMid meet">
<metadata>
Created by potrace 1.16, written by Peter Selinger 2001-2019
</metadata>
<g transform="translate(0.000000,512.000000) scale(0.100000,-0.100000)"
fill="#000000" stroke="none">
<path d="M1568 4259 c-164 -11 -353 -42 -459 -75 -324 -101 -655 -382 -818
-694 -136 -260 -166 -435 -252 -1450 -48 -573 -49 -703 -5 -833 48 -143 107
-236 213 -338 118 -115 262 -191 407 -218 99 -18 272 -14 362 9 93 24 206 76
278 127 28 20 186 171 352 335 325 322 347 338 471 358 76 13 810 13 886 0
125 -20 144 -35 486 -372 282 -279 325 -318 401 -361 131 -73 221 -99 369
-105 145 -5 232 7 343 50 248 95 449 328 504 587 22 104 17 252 -26 761 -72
864 -96 1042 -169 1260 -96 284 -319 565 -584 733 -195 125 -360 179 -657 218
-104 14 -1913 21 -2102 8z m-7 -864 c78 -28 138 -108 139 -185 1 -128 102
-229 230 -230 114 -1 215 -124 195 -238 -9 -52 -47 -111 -92 -141 -22 -14 -66
-28 -112 -35 -42 -7 -90 -20 -108 -29 -64 -34 -113 -118 -113 -198 0 -19 -9
-52 -19 -74 -51 -110 -179 -156 -282 -102 -65 35 -97 87 -115 187 -25 143 -71
190 -215 215 -99 17 -151 49 -186 114 -40 75 -24 176 37 240 29 29 96 60 133
61 87 0 171 49 206 118 10 21 22 64 26 97 9 77 24 112 68 153 60 58 131 74
208 47z m2123 4 c49 -14 122 -80 137 -126 17 -53 7 -141 -21 -185 -53 -79
-149 -113 -238 -84 -152 51 -191 254 -68 352 63 50 119 63 190 43z m-398 -438
c22 -10 54 -35 71 -56 108 -130 29 -321 -138 -333 -76 -6 -120 11 -167 62 -60
65 -74 129 -47 207 41 114 171 170 281 120z m849 0 c159 -73 167 -290 13 -369
-136 -70 -299 25 -299 176 -1 155 149 256 286 193z m-410 -433 c68 -36 105
-102 105 -186 0 -51 -5 -67 -32 -108 -93 -137 -289 -120 -359 31 -81 175 113
353 286 263z"/>
</g>
</svg>
